<svg id="logo" xmlns="http://www.w3.org/2000/svg" viewBox="0 0 1000 250"><defs><style>.cls-1{fill:none;stroke:#00fff8;stroke-miterlimit:10;}.cls-2{fill:#0bffff;}.cls-3{fill:#002f56;}.cls-4{fill:#fff;}</style></defs><title>Athena Technologies_2</title><line class="cls-1" x1="989.98" y1="162.78" x2="999.98" y2="162.78"/><ellipse class="cls-2" cx="132.98" cy="124.98" rx="122.95" ry="122.5"/><path class="cls-3" d="M84.09,190.42a9.6,9.6,0,0,1-2.39,3,13.29,13.29,0,0,1-16.91.05,9.19,9.19,0,0,1-3.53-7.2,8.77,8.77,0,0,1,1.32-4.69L121.27,61.18h.12a9.68,9.68,0,0,1,3.23-4.7,12.46,12.46,0,0,1,8.36-3,12.93,12.93,0,0,1,8.49,3,9.7,9.7,0,0,1,3.23,5.21l.48-.1,59,121.38h-.12a9.07,9.07,0,0,1,.59,3.26,9.18,9.18,0,0,1-3.52,7.2,12.54,12.54,0,0,1-8.43,3,12.21,12.21,0,0,1-8.37-3.06,8.85,8.85,0,0,1-3.1-4.39L133.1,89.87,84.21,190.42Z"/><path class="cls-4" d="M348.83,178.21a45.93,45.93,0,0,1-25-7,49.59,49.59,0,0,1-17.48-18.92,56.28,56.28,0,0,1-6.4-27,53.2,53.2,0,0,1,7-27.13,51.55,51.55,0,0,1,18.91-19,52.19,52.19,0,0,1,26.83-7,51.4,51.4,0,0,1,45.55,26,53.1,53.1,0,0,1,7,27.13h-7.44a56.39,56.39,0,0,1-6.4,27,49.59,49.59,0,0,1-17.48,18.92A45.94,45.94,0,0,1,348.83,178.21ZM352.65,161A32.49,32.49,0,0,0,370,156.33a33.25,33.25,0,0,0,12-12.8,37.69,37.69,0,0,0,4.4-18.25,38.13,38.13,0,0,0-4.4-18.44A33.32,33.32,0,0,0,370,94a34.43,34.43,0,0,0-34.66,0,33.72,33.72,0,0,0-12.22,12.8,37.52,37.52,0,0,0-4.49,18.44,37.08,37.08,0,0,0,4.49,18.25,33.65,33.65,0,0,0,12.22,12.8A32.66,32.66,0,0,0,352.65,161Zm42.78,16.62a9.47,9.47,0,0,1-9.74-9.74V138.66l3.63-20.26,15.85,6.88V167.9a9.47,9.47,0,0,1-9.74,9.74Z"/><path class="cls-4" d="M429.81,93.18a9.2,9.2,0,0,1-6.5-2.29,7.5,7.5,0,0,1-2.48-5.73A8,8,0,0,1,423.31,79a9.2,9.2,0,0,1,6.5-2.29h44.11a9.2,9.2,0,0,1,6.5,2.29,8,8,0,0,1,2.48,6.12,7.5,7.5,0,0,1-2.48,5.73,9.2,9.2,0,0,1-6.5,2.29Zm42.4,84.27A31.34,31.34,0,0,1,455,172.58a34.21,34.21,0,0,1-12-13.28,40.35,40.35,0,0,1-4.39-18.92V49.23a9.55,9.55,0,1,1,19.1,0v91.15a19.6,19.6,0,0,0,4.2,12.8,12.84,12.84,0,0,0,10.32,5.16h6.49a7.49,7.49,0,0,1,5.82,2.68,9.94,9.94,0,0,1,2.39,6.88,8.59,8.59,0,0,1-3.15,6.87,12.08,12.08,0,0,1-8.12,2.68Z"/><path class="cls-4" d="M520.52,139.42a9.47,9.47,0,0,1-9.74-9.74V38a9.36,9.36,0,0,1,2.77-7.07A9.7,9.7,0,0,1,530.26,38v91.72a9.63,9.63,0,0,1-2.67,7A9.38,9.38,0,0,1,520.52,139.42Zm0,38.22a9.47,9.47,0,0,1-9.74-9.74V82.67a9.38,9.38,0,0,1,2.77-7.07,9.7,9.7,0,0,1,16.71,7.07V167.9a9.65,9.65,0,0,1-2.67,7A9.38,9.38,0,0,1,520.52,177.64Zm78.49,0a9.47,9.47,0,0,1-9.74-9.74v-47q0-10.89-4-17.77a25.3,25.3,0,0,0-10.79-10.23,34.87,34.87,0,0,0-15.56-3.34,32,32,0,0,0-14.52,3.25,27.18,27.18,0,0,0-10.31,8.69A21.25,21.25,0,0,0,530.26,114h-12a40.19,40.19,0,0,1,5.82-21.5,42.19,42.19,0,0,1,16-15A46.58,46.58,0,0,1,562.73,72a48.7,48.7,0,0,1,23.58,5.64,40.68,40.68,0,0,1,16.43,16.53q6,10.89,6,26.75v47a9.47,9.47,0,0,1-9.74,9.74Z"/><path class="cls-4" d="M690.3,178.21q-15.85,0-28.17-6.78a49.56,49.56,0,0,1-19.29-18.73q-7-11.94-7-27.42,0-15.66,6.59-27.61A48.13,48.13,0,0,1,660.7,79a52.17,52.17,0,0,1,26.74-6.79q14.89,0,25.59,6.59a43,43,0,0,1,16.33,18.16Q735,108.48,735,123.56a8,8,0,0,1-2.48,6A8.71,8.71,0,0,1,726.2,132h-77V116.68h76.39L717.8,122A41,41,0,0,0,714,104.93,29.06,29.06,0,0,0,703.67,93Q697,88.6,687.44,88.6q-10.89,0-18.62,4.77a30.77,30.77,0,0,0-11.75,13.09,42.83,42.83,0,0,0-4,18.82A36.62,36.62,0,0,0,657.83,144,34.83,34.83,0,0,0,671,157a38.28,38.28,0,0,0,19.29,4.78,36.1,36.1,0,0,0,12.13-2.2,37.52,37.52,0,0,0,10-5.06,10.89,10.89,0,0,1,6.21-2.2,8.39,8.39,0,0,1,5.83,2,9,9,0,0,1,3.43,6.3,6.78,6.78,0,0,1-3,5.93,52.68,52.68,0,0,1-16.14,8.4A57.58,57.58,0,0,1,690.3,178.21Z"/><path class="cls-4" d="M769.55,177.64a9.47,9.47,0,0,1-9.74-9.74V82.67a9.41,9.41,0,0,1,2.77-7.07,9.7,9.7,0,0,1,16.71,7.07V167.9a9.65,9.65,0,0,1-2.67,7A9.36,9.36,0,0,1,769.55,177.64Zm78.5,0a9.47,9.47,0,0,1-9.74-9.74v-47q0-10.89-4-17.77a25.41,25.41,0,0,0-10.79-10.23,34.88,34.88,0,0,0-15.57-3.34,31.88,31.88,0,0,0-14.51,3.25,27.22,27.22,0,0,0-10.32,8.69A21.32,21.32,0,0,0,779.29,114h-12a40.11,40.11,0,0,1,5.83-21.5,42.09,42.09,0,0,1,15.94-15A46.61,46.61,0,0,1,811.76,72a48.71,48.71,0,0,1,23.59,5.64,40.66,40.66,0,0,1,16.42,16.53q6,10.89,6,26.75v47a9.47,9.47,0,0,1-9.74,9.74Z"/><path class="cls-4" d="M933.6,178.21a45.93,45.93,0,0,1-25-7,49.59,49.59,0,0,1-17.48-18.92,56.28,56.28,0,0,1-6.4-27,53.2,53.2,0,0,1,7-27.13,51.55,51.55,0,0,1,18.91-19,52.64,52.64,0,0,1,72.38,19,53.1,53.1,0,0,1,7,27.13H982.5a56.39,56.39,0,0,1-6.4,27,49.59,49.59,0,0,1-17.48,18.92A45.94,45.94,0,0,1,933.6,178.21ZM937.42,161a32.49,32.49,0,0,0,17.38-4.69,33.25,33.25,0,0,0,12-12.8,37.69,37.69,0,0,0,4.4-18.25,38.13,38.13,0,0,0-4.4-18.44,33.32,33.32,0,0,0-12-12.8,34.43,34.43,0,0,0-34.66,0,33.72,33.72,0,0,0-12.22,12.8,37.41,37.41,0,0,0-4.49,18.44,37,37,0,0,0,4.49,18.25,33.65,33.65,0,0,0,12.22,12.8A32.66,32.66,0,0,0,937.42,161Zm42.78,16.62a9.47,9.47,0,0,1-9.74-9.74V138.66l3.63-20.26,15.85,6.88V167.9a9.47,9.47,0,0,1-9.74,9.74Z"/></svg>