<svg xmlns="http://www.w3.org/2000/svg" viewBox="0 0 4096 2304"><defs><style>.cls-1{fill:#dee2ff;}.cls-2{fill:#003559;}.cls-3{fill:#1f2937;}.cls-4{fill:#ff495c;}.cls-5{fill:#f0f757;}.cls-6{fill:#04f06a;}</style></defs><g id="background"><rect class="cls-1" width="4096" height="2304"/><rect class="cls-2" width="4096" height="320"/></g><g id="text"><path class="cls-3" d="M512.89,945.21q0,40-19.82,59.13t-43.85,19.17h-154q0,18.2,21.44,30.54t42.88,12.34q37.68,0,59.13-7.8l7.15-2.59q15.59-7.15,26-7.15,20.78,0,35.73,29.24Q496,1095.63,496,1108q0,57.82-138.4,57.82-48.09,0-85.44-16.57T214,1105.38q-40.93-52.64-40.94-117.61,0-81.87,53-130.92t132.22-49.06q90.3,0,132.55,63.68A132.13,132.13,0,0,1,512.89,945.21Zm-137.1,19.17q24.69,0,24.7-20.79,0-14.94-11.38-24t-32.48-9.1q-21.12,0-41.91,17.22t-20.79,36.71Z"/><path class="cls-3" d="M787.73,818.84a43.92,43.92,0,0,1,20.47,13.32q8.12,9.42,8.12,30.21T804,907.85q-12.36,24.71-35.74,24.69a50.71,50.71,0,0,1-22.42-5.19q-10.71-5.21-28.26-5.2t-32.81,12.34q-15.27,12.36-15.27,29.89v136.45a188.42,188.42,0,0,1-1,22.42q-1,7.47-6.17,17.21-9.75,16.9-50.68,16.9-31.18,0-44.83-11-10.4-9.09-11.7-27.94V871.47a188.65,188.65,0,0,1,1-22.42,53.27,53.27,0,0,1,5.52-16.57q9.09-17.54,50.68-17.54,39,0,48.73,14.94,7.14,10.41,7.15,21.45a108.14,108.14,0,0,1,9.42-11.05q6.17-6.48,26.32-17.54t35.41-11A170.51,170.51,0,0,1,765,813.32,155.75,155.75,0,0,1,787.73,818.84Z"/><path class="cls-3" d="M958.93,751.59q-4.87,9.42-17.22,13.32t-32.81,3.9q-20.46,0-32.81-3.9t-17.22-13.65Q854,741.53,853,734.05a259.59,259.59,0,0,1,0-44.84,53,53,0,0,1,5.53-16.56q9.09-17.55,50.68-17.55,40.93,0,49.38,17.55c3.46,6.49,5.52,12.24,6.17,17.21a259.59,259.59,0,0,1,0,44.84Q963.81,742.17,958.93,751.59ZM852.05,872.12a189.12,189.12,0,0,1,1-22.42,60.16,60.16,0,0,1,5.53-17.22q9.09-16.89,50.68-16.89,31.18,0,44.18,11,11,9.11,11.69,27.93.64,6.51.65,18.85v227.41a188.89,188.89,0,0,1-1,22.42q-1,7.47-6.17,17.21-8.46,16.9-50,16.9-40.94,0-50-17.55-4.56-9.74-5.53-16.89t-1-22.74Z"/><path class="cls-3" d="M1124.94,986.15q0,27.61,18.19,42.88t38.66,15.27a67.38,67.38,0,0,0,38.33-12q17.87-12,28.92-12,19.49,0,47.43,34.44,14.94,18.84,14.94,33.78,0,24.7-35.73,46.14-37,26-91,26-60.42,0-116.3-43.54-26.65-20.79-43.54-55.55T1008,984.85q0-41.91,16.89-76t43.54-54.91q53.92-42.87,115-42.88a171.11,171.11,0,0,1,48.08,6.82q23.4,6.82,34.44,13.32l10.4,6.5q11.68,7.8,18.19,12.35,16.89,13,16.89,29.56T1297.77,917q-23.4,35.74-44.83,35.74-12.36,0-35.09-14.3-11.7-11-33.46-11t-40.61,15.59Q1124.93,958.54,1124.94,986.15Z"/><path class="cls-3" d="M1555.07,985.82l86.41,71.48q16.24,13.64,20.47,20.79t4.22,13.64q0,15.6-20.14,42.24-22.1,27.29-39,27.28-14.31,0-39.64-18.84l-6.5-4.55q-14.94-12.33-46.13-43.2t-47.43-43.86v50a188.89,188.89,0,0,1-1,22.42q-1,7.47-6.18,17.21-8.45,16.9-50,16.9-40.93,0-50-17.55a60.13,60.13,0,0,1-5.52-17.22,188.58,188.58,0,0,1-1-22.41V711a189.12,189.12,0,0,1,1-22.42,60.27,60.27,0,0,1,5.52-17.21q9.09-17.55,50.68-17.55,31.18,0,44.19,11.05,11,9.1,11.69,28.59.65,5.85.65,18.19v206q11.7-9.75,35.41-33.14t35.41-33.13l7.8-5.2q22.74-17.55,39-17.55t37.36,26.32q21.11,26.31,21.11,41.26t-24,35.08Z"/><path class="cls-3" d="M1704.51,1126.82q-12.36-7.8-12.35-24.69t24.69-51.33q7.14-11,23.07-11t43.21,15.92q27.28,15.93,49.38,15.92,39.62,0,39.63-15.59,0-12.35-43.53-18.2-40.93-5.85-81.22-30.53-18.86-11.7-31.19-36.72t-12.34-59.45q0-102.65,141-102.66,46.13,0,94.86,22.09,22.74,10.41,22.75,26t-14.3,38.34q-14.29,22.75-29.24,22.74-7.8,0-28.91-9.75a108.1,108.1,0,0,0-45.81-9.74q-38.34,0-38.33,14.29,0,19.5,44.18,25.34a242.24,242.24,0,0,1,83.17,24.69q18.84,9.11,31.51,31.52t12.67,56.2q0,33.8-12.67,57.5t-35.41,35.41q-41.6,20.14-104.29,20.14T1704.51,1126.82Z"/><path class="cls-3" d="M2064.46,857.82q54.59-50.67,124.76-50.68t124.1,50.36q53.92,50.36,53.93,128.32,0,53.94-27.94,95.84t-67.9,61.73q-40,19.83-82.84,19.81t-83.17-21.11q-40.29-21.1-67.9-62.38t-27.61-93.24Q2009.89,908.5,2064.46,857.82Zm81.22,175.11q20.79,15.93,42.24,15.92t42.88-16.25q21.43-16.23,21.44-48.08t-20.14-47.43q-20.14-15.58-43.53-15.59T2145,937.74q-20.15,16.25-20.14,47.76T2145.68,1032.93Z"/><path class="cls-3" d="M2599.85,814.94q65,0,108.18,49.71t43.21,121.17v114.36a188.58,188.58,0,0,1-1,22.41,53.07,53.07,0,0,1-5.53,16.57q-9.1,17.55-50.68,17.55-46.14,0-53.28-24-3.89-11-3.89-33.14V985.17q0-26.62-15.27-41.58t-40.94-14.94q-25.66,0-41.58,15.59t-15.92,40.93v115a186,186,0,0,1-1,22.41c-.64,5-2.71,10.51-6.17,16.57q-8.45,17.55-50,17.55-40.93,0-50-17.55a60.18,60.18,0,0,1-5.52-17.21,188.42,188.42,0,0,1-1-22.42v-230a181.29,181.29,0,0,1,1-21.77q1-7.46,6.17-16.57,9.09-16.23,50-16.24,39.63,0,48.73,14.94,6.49,11.05,6.5,26.64,2.6-4.53,11.7-13a114.36,114.36,0,0,1,17.54-13.65A85.08,85.08,0,0,1,2599.85,814.94Z"/><path class="cls-3" d="M993.68,1663q30.62-46.25,73.61-46.25,66.45,0,99,56.68a218.42,218.42,0,0,1,17.26-20.52q10.08-10.75,32.24-23.45t45.6-12.71q52.11,0,87.29,40.07t35.17,132.56v114a187,187,0,0,1-1,22.47q-1,7.5-6.18,17.27-8.48,17.58-50.16,17.58-41,0-50.16-18.24a60.55,60.55,0,0,1-5.54-17.26,189.74,189.74,0,0,1-1-22.47v-114q0-56.67-40.39-56.67-22.82,0-30.94,15t-8.14,42.34v114q0,15.63-1,22.8t-6.19,16.94q-9.13,17.58-50.81,17.58-41,0-50.16-18.24a60.18,60.18,0,0,1-5.53-17.26,189.27,189.27,0,0,1-1-22.47v-114q0-56.67-40.39-56.67-39.07,0-39.08,56.67V1904a189.35,189.35,0,0,1-1,22.48q-1,7.48-6.19,17.26-9.76,16.95-50.8,16.93t-50.16-17.58q-4.57-9.78-5.54-16.94t-1-22.8V1674a189.58,189.58,0,0,1,1-22.48q1-7.47,6.19-16.61,9.77-17.58,46.25-17.58t47.55,11.72Q993.68,1640.81,993.68,1663Z"/><path class="cls-3" d="M1855.48,1620q41.68,18.24,41.69,45,0,11.08-10.42,35.5t-17.59,42.67l-71.65,174.57q-9.77,28.68-32.57,40.39-9.78,4.55-24.75,4.56t-29-11.4q-14-11.39-18.57-23.13l-5.21-11.07q-5.22-13-38.43-101.62-6.52,15.63-19.22,51.14t-16.28,44.29q-3.59,8.79-4.56,11.73t-5.54,10.74A66.32,66.32,0,0,1,1593,1947q-15.63,15.64-35.83,15.64t-33.87-11.4q-13.68-11.39-18.24-23.13l-98.36-239.71q-6.53-19.54-6.51-25.41,0-26,37.13-41,20.84-8.46,33.87-8.47t21.17,5.53q8.14,5.55,11.4,11.08a59.49,59.49,0,0,1,5.21,11.4q11.07,26.05,46.25,122.46l38.43-105.53A50.92,50.92,0,0,1,1608,1635.6q18.88-18.88,38.44-18.9t33.54,10.43q14,10.42,19.22,20.84l5.21,11.08q32.57,91.2,38.43,104.22l39.74-108.13q15.63-41.69,46.9-41.69Q1841.79,1613.45,1855.48,1620Z"/><path class="cls-3" d="M2250.89,1748q0,40.07-19.87,59.28t-44,19.22H2032.67q0,18.24,21.5,30.61t43,12.38q37.77,0,59.28-7.82l7.16-2.6q15.63-7.17,26.06-7.17,20.84,0,35.82,29.31,8.46,17.6,8.47,30,0,58-138.74,58-48.23,0-85.66-16.61t-58.3-44q-41-52.76-41-117.9,0-82.08,53.09-131.26t132.56-49.18q90.53,0,132.88,63.84A132.43,132.43,0,0,1,2250.89,1748Zm-137.45,19.22q24.75,0,24.76-20.85,0-15-11.4-24.1t-32.57-9.12q-21.18,0-42,17.26t-20.84,36.81Z"/><path class="cls-3" d="M2484.09,1617.36q65.13,0,108.46,49.83t43.31,121.48v114.65a189.63,189.63,0,0,1-1,22.47,53.31,53.31,0,0,1-5.54,16.61q-9.13,17.6-50.81,17.59-46.26,0-53.41-24.1-3.91-11.07-3.91-33.22V1788q0-26.7-15.31-41.69t-41-15q-25.74,0-41.69,15.64t-16,41v115.3a189.63,189.63,0,0,1-1,22.47q-1,7.5-6.19,16.61-8.47,17.6-50.16,17.59-41,0-50.16-17.59a60.18,60.18,0,0,1-5.53-17.26,189.27,189.27,0,0,1-1-22.47v-230.6a182.12,182.12,0,0,1,1-21.82q1-7.47,6.18-16.61,9.12-16.28,50.16-16.28,39.73,0,48.86,15,6.49,11.09,6.51,26.71,2.6-4.56,11.73-13a114.72,114.72,0,0,1,17.58-13.68A85.3,85.3,0,0,1,2484.09,1617.36Z"/><path class="cls-3" d="M2918.24,1474.37q4.89-9.43,17.26-13.35t32.9-3.91q20.52,0,32.89,3.91t17.26,13.68c3.26,6.51,5.21,12.28,5.87,17.26a190.05,190.05,0,0,1,1,22.48v388.88a189.63,189.63,0,0,1-1,22.47q-1,7.5-6.19,16.61-9.78,17.6-55.05,17.59t-50.48-31.92q-27.36,31.28-76.21,31.27-58.63,0-106.83-51.13T2681.46,1789q0-68.05,48.52-119.53T2836.49,1618q48.2,0,74.91,32.57v-136.8a187.35,187.35,0,0,1,1-22.47Q2913.36,1483.82,2918.24,1474.37Zm-105.85,354q16.92,17.58,41,17.59t40.06-17.59q16-17.6,16-38.76t-15.3-39.41q-15.32-18.23-41.37-18.24t-41.69,17.92q-15.63,17.91-15.63,39.41T2812.39,1828.41Z"/><path class="cls-3" d="M3510,1620q41.68,18.24,41.69,45,0,11.08-10.42,35.5t-17.59,42.67l-71.65,174.57q-9.78,28.68-32.57,40.39-9.78,4.55-24.76,4.56t-29-11.4q-14-11.39-18.57-23.13L3342,1917q-5.22-13-38.43-101.62-6.52,15.63-19.22,51.14T3268,1910.81q-3.59,8.79-4.56,11.73c-.65,2-2.51,5.53-5.54,10.74a66.32,66.32,0,0,1-10.42,13.68q-15.63,15.64-35.83,15.64t-33.87-11.4q-13.68-11.39-18.24-23.13l-98.36-239.71q-6.53-19.54-6.52-25.41,0-26,37.13-41,20.85-8.46,33.88-8.47t21.17,5.53q8.13,5.55,11.4,11.08a60.1,60.1,0,0,1,5.21,11.4q11.07,26.05,46.25,122.46l38.43-105.53a50.92,50.92,0,0,1,14.33-22.79q18.89-18.88,38.43-18.9t33.55,10.43q14,10.42,19.22,20.84l5.21,11.08q32.57,91.2,38.43,104.22l39.73-108.13q15.64-41.69,46.91-41.69Q3496.34,1613.45,3510,1620Z"/><path class="cls-3" d="M3797.31,1653.83q3.9-36.46,51.46-36.47,25.39,0,37.78,3.9t17.26,13.68q4.89,9.78,5.86,17.27a189.27,189.27,0,0,1,1,22.47v228a189.27,189.27,0,0,1-1,22.47,60.24,60.24,0,0,1-5.54,17.26q-9.12,16.95-44.62,16.94t-47.55-8.79q-12.06-8.8-14-25.73-24.11,34.53-80.45,34.52T3613,1907.88q-48.21-51.45-48.2-119.53t48.53-119.21q48.51-51.12,106.5-51.13,22.14,0,40.39,7.81t25.4,14.66A92.25,92.25,0,0,1,3797.31,1653.83Zm-118.56,135.5q0,21.5,16.94,38.75a55.29,55.29,0,0,0,41,17.27q24.09,0,40.06-17.59t16-38.76q0-21.16-15.31-39.41t-41-18.24q-25.74,0-41.69,18.24T3678.75,1789.33Z"/><circle class="cls-4" cx="241" cy="160" r="80"/><circle class="cls-5" cx="521" cy="160" r="80"/><circle class="cls-6" cx="801" cy="160" r="80"/></g></svg>