<svg id="logo" xmlns="http://www.w3.org/2000/svg" viewBox="0 0 1024 256"><defs><style>.cls-1{fill:#e9eceb;}.cls-2{fill:#222f3c;}.cls-3{fill:#e54c3c;}.cls-4{fill:#5c2c6f;}.cls-5{fill:#829091;}.cls-6{fill:#efc319;}.cls-7{fill:#20628d;}.cls-8{fill:#117a65;}</style></defs><rect class="cls-1" width="1024" height="256" rx="24"/><path class="cls-2" d="M211.44,111.3l-14.84-8.57a3.85,3.85,0,0,0-4.44-.17l-11.33,7.37a3.85,3.85,0,0,0-1.76,3.24v76.92a3.86,3.86,0,0,0,3.86,3.86h11.33a3.86,3.86,0,0,0,3.86-3.86V106.91l11.9,6.87a1.25,1.25,0,0,0,1.72-.47l.17-.28A1.26,1.26,0,0,0,211.44,111.3Z"/><path class="cls-3" d="M240.8,87.6l-11.33-8.73a3.36,3.36,0,0,0-4.44.19L210.19,89.23a1.55,1.55,0,0,0-.61,1.32.3.3,0,0,0,0,.1v76a.66.66,0,0,0,.66.67h1.53a.66.66,0,0,0,.66-.67v-75l11.1-7.6V182.7c0,2.53,1.73,4.58,3.86,4.58H238.7c2.13,0,3.86-2.05,3.86-4.58V91.44A4.84,4.84,0,0,0,240.8,87.6Z"/><rect class="cls-4" x="156.12" y="126.31" width="21.52" height="73.59" rx="4.8"/><path class="cls-5" d="M147.16,109.7h1.07a4.65,4.65,0,0,1,4.65,4.65V192a0,0,0,0,1,0,0h-5.72a0,0,0,0,1,0,0V109.7A0,0,0,0,1,147.16,109.7Z"/><path class="cls-6" d="M134,201.15h12.73c2,0,3.63-2,3.63-4.5V114.21c0-3.74-3.46-5.85-5.85-3.56l-12.74,12.2a5,5,0,0,0-1.41,3.56v70.24C130.34,199.14,132,201.15,134,201.15Z"/><path class="cls-7" d="M321.53,73.88c-27.59-30.6-77.87-51.07-135.32-51.07C128.13,22.81,77.39,43.73,50,74.88,140.51,105.31,231,43.33,321.53,73.88Z"/><path class="cls-8" d="M50,181.13c27.39,31.14,78.13,52.06,136.2,52.06,58.42,0,109.42-21.16,136.69-52.61C231.94,148.94,141,211.71,50,181.13Z"/><path class="cls-2" d="M447.76,38.6a4.86,4.86,0,0,1,2.74-2.08A15.15,15.15,0,0,1,455,36a15.59,15.59,0,0,1,4.3.47,7.65,7.65,0,0,1,2.46,1.13,3.74,3.74,0,0,1,1.23,2,15.74,15.74,0,0,1,.57,4.92V73a36.66,36.66,0,0,1-7.76,22.7,28.17,28.17,0,0,1-9.74,7.81,29.2,29.2,0,0,1-13.2,3,28.42,28.42,0,0,1-13.15-3,27.4,27.4,0,0,1-9.6-8,36.39,36.39,0,0,1-7.66-22.7V44.37a27.35,27.35,0,0,1,.14-3.35,7.37,7.37,0,0,1,.9-2.51,4.12,4.12,0,0,1,2.55-2,21.07,21.07,0,0,1,9.65,0,3.79,3.79,0,0,1,2.46,2,13,13,0,0,1,1.14,6V72.85a22.58,22.58,0,0,0,2.83,11,10.65,10.65,0,0,0,4.26,4.26,13.42,13.42,0,0,0,6.72,1.61q6.9,0,10.31-5.11a20.84,20.84,0,0,0,3.4-11.83V43.81Q446.81,40.12,447.76,38.6Z"/><path class="cls-2" d="M524.2,93.66a15.08,15.08,0,0,1,1.41,4.92c0,2.4-2,4.41-5.86,6a12.9,12.9,0,0,1-4.87,1.33,4.87,4.87,0,0,1-3-.9,6.78,6.78,0,0,1-1.75-1.84q-.94-1.8-7.38-17.13l-2.93.19H487.87V97a28.48,28.48,0,0,1-.14,3.26,7.74,7.74,0,0,1-.9,2.51c-.88,1.7-3.34,2.56-7.38,2.56q-6.61,0-7.76-3.5a16.15,16.15,0,0,1-.56-4.92V44.37a26.53,26.53,0,0,1,.14-3.26,7.44,7.44,0,0,1,.9-2.51q1.32-2.55,7.37-2.55H500q8.32,0,16.17,6.05a22.21,22.21,0,0,1,6.25,7.95,25,25,0,0,1,2.46,11.16q0,10.7-7.1,17.6Q519.85,83.82,524.2,93.66ZM487.87,69.54H500a9.06,9.06,0,0,0,5.48-2.08,7.35,7.35,0,0,0,2.75-6.25,7.48,7.48,0,0,0-2.75-6.29,9.13,9.13,0,0,0-5.67-2.13H487.87Z"/><path class="cls-2" d="M580.2,68.21a22.59,22.59,0,0,1-.9,30.7A20.65,20.65,0,0,1,564,105.3H539.14q-6.61,0-7.76-3.6a16.11,16.11,0,0,1-.56-4.92V44.28A26.29,26.29,0,0,1,531,41a7.46,7.46,0,0,1,.9-2.46Q533.18,36,539.24,36h23.83a19.44,19.44,0,0,1,14.57,6,20.13,20.13,0,0,1,6.15,14.76A19.71,19.71,0,0,1,580.2,68.21ZM569,82.12a10,10,0,0,0-.52-3.59,3.31,3.31,0,0,0-1.75-1.9,14.81,14.81,0,0,0-5.29-.75,8.19,8.19,0,0,1-5.11-1.33c-1.14-.88-1.7-2.69-1.7-5.44s.58-4.55,1.74-5.44,3.11-1.32,5.82-1.32c2.52,0,4-.66,4.54-2a14.22,14.22,0,0,0,.29-3.4,3.55,3.55,0,0,0-1.56-3.31,9.24,9.24,0,0,0-4.69-.95H547.56V88.55h15.51Q569,88.55,569,82.12Z"/><path class="cls-2" d="M631.94,41l25.54,52.79a12.36,12.36,0,0,1,1.61,4.82q0,3.4-5.48,6.15a12.51,12.51,0,0,1-5.07,1.61,5.07,5.07,0,0,1-3-.85,5.74,5.74,0,0,1-1.71-1.8c-.34-.63-.83-1.58-1.46-2.84l-4.92-10.22H611.22l-4.91,10.22c-.64,1.26-1.12,2.18-1.47,2.74a6.73,6.73,0,0,1-1.7,1.75,4.87,4.87,0,0,1-3,.9,12.27,12.27,0,0,1-5.06-1.61q-5.49-2.64-5.49-6a12.36,12.36,0,0,1,1.61-4.82l25.54-52.89a8.28,8.28,0,0,1,3.17-3.5,8.4,8.4,0,0,1,4.49-1.32Q629.48,36.05,631.94,41Zm-7.66,22.7-6.24,13h12.58Z"/><path class="cls-2" d="M709.09,38.94a4.48,4.48,0,0,1,2.69-2.23,15.12,15.12,0,0,1,4.5-.57,16.14,16.14,0,0,1,4.35.48,6.9,6.9,0,0,1,2.46,1.13,3.94,3.94,0,0,1,1.18,2,14.82,14.82,0,0,1,.57,4.82V97.07a28.51,28.51,0,0,1-.14,3.31,8,8,0,0,1-.9,2.46q-1.34,2.55-7.38,2.55a15.55,15.55,0,0,1-5.11-.57A5.42,5.42,0,0,1,709,103q-21.29-28.38-28-37.09V97.07a26.4,26.4,0,0,1-.14,3.31,7.46,7.46,0,0,1-.9,2.46q-1.32,2.55-7.37,2.55c-3.92,0-6.31-.85-7.19-2.55a7.37,7.37,0,0,1-.9-2.56,27.15,27.15,0,0,1-.15-3.31V44.19a11.5,11.5,0,0,1,.9-5.25,4.5,4.5,0,0,1,2.7-2.23,15.67,15.67,0,0,1,4.64-.57,15.37,15.37,0,0,1,4.49.53,5.82,5.82,0,0,1,2.32,1.18,25.82,25.82,0,0,1,2.17,2.46q20,27.15,26.68,35.85v-32A11.5,11.5,0,0,1,709.09,38.94Z"/><path class="cls-2" d="M410.87,149.47l17.5.1a34,34,0,0,1,24.12,9.88,32.23,32.23,0,0,1,10.41,24.32,34,34,0,0,1-10.17,24.73,33.32,33.32,0,0,1-24.65,10.31H410.77c-3.85,0-6.24-.78-7.19-2.36a12.68,12.68,0,0,1-1.13-6.06V157.8a26.19,26.19,0,0,1,.14-3.31,7.31,7.31,0,0,1,.9-2.46Q404.81,149.46,410.87,149.47ZM440.66,197a16.57,16.57,0,0,0,5.49-12.72,17.1,17.1,0,0,0-5.34-12.82,17.48,17.48,0,0,0-12.54-5.16h-9.08v35.76h9.18A17.68,17.68,0,0,0,440.66,197Z"/><path class="cls-2" d="M469,157.89a26,26,0,0,1,.15-3.26,7.37,7.37,0,0,1,.9-2.51q1.32-2.55,7.37-2.55,6.63,0,7.86,3.5a19.06,19.06,0,0,1,.47,4.92v52.59a28.59,28.59,0,0,1-.14,3.32,7.82,7.82,0,0,1-.9,2.45q-1.33,2.57-7.38,2.56c-4.42,0-7-1.2-7.76-3.6a14.74,14.74,0,0,1-.57-4.82Z"/><path class="cls-2" d="M567.05,152.22a7.69,7.69,0,0,1,.9,2.55,30,30,0,0,1,.14,3.31v52.5q0,6.53-3.6,7.67a15.3,15.3,0,0,1-4.54.56,15.79,15.79,0,0,1-4.35-.47,7.45,7.45,0,0,1-2.46-1.13,4.22,4.22,0,0,1-1.32-1.9,18.53,18.53,0,0,1-.48-4.92V178.7q-2.36,2.94-6.9,9.32t-5.77,8l-1.7,2.22a9.09,9.09,0,0,1-2.32,1.7,7.93,7.93,0,0,1-7.85.1,8.79,8.79,0,0,1-2.51-1.94l-.76-1q-1.89-2.37-7.47-10.08T510,178.7v31.88a26.5,26.5,0,0,1-.14,3.27,6.55,6.55,0,0,1-.9,2.41q-1.41,2.55-7.37,2.55-5.77,0-7.19-2.55a6.51,6.51,0,0,1-.9-2.46,28.83,28.83,0,0,1-.14-3.41v-52.5a26.43,26.43,0,0,1,.14-3.26,7.37,7.37,0,0,1,.9-2.51q1.41-2.46,7.37-2.46a13.94,13.94,0,0,1,4.4.62,5.75,5.75,0,0,1,2.42,1.27l.56.57,21.48,28.19Q546.71,159,552.1,152.22q1.6-2.57,7.62-2.56T567.05,152.22Z"/><path class="cls-2" d="M592.4,202.16h29.13a26.18,26.18,0,0,1,3.27.15,7.62,7.62,0,0,1,2.51.89q2.55,1.34,2.55,7.38c0,4.42-1.17,7-3.5,7.76a15.74,15.74,0,0,1-4.92.57H584c-4.42,0-7-1.2-7.76-3.6a14.74,14.74,0,0,1-.57-4.82v-52.6q0-4.81,1.8-6.57t6.81-1.75h37.27a28.81,28.81,0,0,1,3.27.14,7.44,7.44,0,0,1,2.51.9q2.55,1.32,2.55,7.38c0,4.41-1.17,7-3.5,7.75a15.74,15.74,0,0,1-4.92.57h-29v9.56h18.73a26.32,26.32,0,0,1,3.26.14,7.37,7.37,0,0,1,2.51.9q2.55,1.32,2.55,7.38c0,4.41-1.2,7-3.59,7.75a15.74,15.74,0,0,1-4.92.57H592.4Z"/><path class="cls-2" d="M680.8,152.45a4.52,4.52,0,0,1,2.7-2.22,15,15,0,0,1,4.49-.57,16,16,0,0,1,4.35.48,6.9,6.9,0,0,1,2.46,1.13,3.86,3.86,0,0,1,1.18,2,14.82,14.82,0,0,1,.57,4.82v52.5a28.59,28.59,0,0,1-.14,3.32,7.82,7.82,0,0,1-.9,2.45q-1.32,2.57-7.38,2.56a15.55,15.55,0,0,1-5.11-.57,5.56,5.56,0,0,1-2.36-1.8q-21.28-28.38-28-37.08v31.12a26,26,0,0,1-.15,3.32,7.52,7.52,0,0,1-.89,2.45q-1.33,2.57-7.38,2.56c-3.92,0-6.31-.85-7.19-2.56a7.26,7.26,0,0,1-.9-2.55,27.69,27.69,0,0,1-.14-3.31V157.7a11.42,11.42,0,0,1,.9-5.25,4.47,4.47,0,0,1,2.69-2.22,19.4,19.4,0,0,1,9.13,0,5.81,5.81,0,0,1,2.32,1.19,23.22,23.22,0,0,1,2.17,2.46q20,27.15,26.68,35.85v-32A11.56,11.56,0,0,1,680.8,152.45Z"/><path class="cls-2" d="M705.16,209.17c-1.64-2-2.46-3.84-2.46-5.44s1.35-3.74,4.06-6.39a7.21,7.21,0,0,1,5-2.27q2.64,0,7.38,4.73a14.21,14.21,0,0,0,3.78,3.07,9,9,0,0,0,4.54,1.47q8.81,0,8.8-7.19a4.26,4.26,0,0,0-2.41-3.64,17.6,17.6,0,0,0-6-2.13,54.81,54.81,0,0,1-15.51-5.58,15.7,15.7,0,0,1-6-6.29,20.86,20.86,0,0,1-2.41-10.36,19.88,19.88,0,0,1,6.19-14.52q6.2-6.19,16.89-6.2a34.49,34.49,0,0,1,10.36,1.47,19.93,19.93,0,0,1,6.48,3l2.36,1.8c2,1.83,2.93,3.37,2.93,4.63s-.75,3-2.27,5.2c-2.14,3.16-4.35,4.73-6.62,4.73a9.75,9.75,0,0,1-4.92-1.89,10,10,0,0,1-1.08-.94,13.65,13.65,0,0,0-1.47-1.23,9.48,9.48,0,0,0-5.06-1.23,8.57,8.57,0,0,0-5.11,1.46,4.73,4.73,0,0,0-2,4.07,4.85,4.85,0,0,0,2.41,4.21,15,15,0,0,0,6,2.18,68.66,68.66,0,0,1,7.86,1.75,49.93,49.93,0,0,1,7.85,2.88,14,14,0,0,1,6,5.91,20.65,20.65,0,0,1,2.41,10.36,22.94,22.94,0,0,1-2.46,10.83,18.72,18.72,0,0,1-6.43,7.24,29.4,29.4,0,0,1-16.37,5,32,32,0,0,1-8.42-1.08,23,23,0,0,1-6.43-2.7q-5-3-7-5.87Z"/><path class="cls-2" d="M759.27,157.89a26.43,26.43,0,0,1,.14-3.26,7.37,7.37,0,0,1,.9-2.51q1.32-2.55,7.37-2.55,6.63,0,7.86,3.5A19.06,19.06,0,0,1,776,158v52.59a28.59,28.59,0,0,1-.14,3.32,7.82,7.82,0,0,1-.9,2.45q-1.32,2.57-7.38,2.56-6.62,0-7.76-3.6a15.08,15.08,0,0,1-.56-4.82Z"/><path class="cls-2" d="M816.12,148.72A34.88,34.88,0,0,1,850.74,184a36.12,36.12,0,0,1-9.84,25.55A31.81,31.81,0,0,1,816.69,220a32.77,32.77,0,0,1-24.46-10.4,34.43,34.43,0,0,1-10.07-24.79A38,38,0,0,1,785,170.14a34.11,34.11,0,0,1,7.56-11.49,35.39,35.39,0,0,1,10.88-7.28A31.69,31.69,0,0,1,816.12,148.72ZM798.9,184.38q0,8.42,5.44,13.67a16.8,16.8,0,0,0,24.27.14q5.39-5.1,5.39-13.72t-5.44-13.81a17.23,17.23,0,0,0-12.16-5.2,17,17,0,0,0-12.11,5.25Q798.91,176,798.9,184.38Z"/><path class="cls-2" d="M901.68,152.45a4.52,4.52,0,0,1,2.7-2.22,15.05,15.05,0,0,1,4.49-.57,16,16,0,0,1,4.35.48,6.73,6.73,0,0,1,2.46,1.13,3.79,3.79,0,0,1,1.18,2,14.82,14.82,0,0,1,.57,4.82v52.5a26.47,26.47,0,0,1-.14,3.32,7.34,7.34,0,0,1-.9,2.45q-1.32,2.57-7.38,2.56a15.44,15.44,0,0,1-5.1-.57,5.53,5.53,0,0,1-2.37-1.8q-21.28-28.38-28-37.08v31.12a28.59,28.59,0,0,1-.14,3.32,7.82,7.82,0,0,1-.9,2.45q-1.34,2.57-7.38,2.56-5.86,0-7.19-2.56a7.47,7.47,0,0,1-.9-2.55,30,30,0,0,1-.14-3.31V157.7a11.56,11.56,0,0,1,.9-5.25,4.5,4.5,0,0,1,2.69-2.22,19.4,19.4,0,0,1,9.13,0,5.67,5.67,0,0,1,2.32,1.19,22.71,22.71,0,0,1,2.18,2.46q19.95,27.15,26.67,35.85v-32A11.56,11.56,0,0,1,901.68,152.45Z"/><path class="cls-2" d="M926,209.17c-1.64-2-2.46-3.84-2.46-5.44s1.35-3.74,4.07-6.39a7.18,7.18,0,0,1,5-2.27q2.65,0,7.38,4.73a14.21,14.21,0,0,0,3.78,3.07,9,9,0,0,0,4.54,1.47q8.8,0,8.8-7.19a4.24,4.24,0,0,0-2.41-3.64,17.6,17.6,0,0,0-6-2.13,55.1,55.1,0,0,1-15.51-5.58,15.7,15.7,0,0,1-6-6.29,20.86,20.86,0,0,1-2.41-10.36,19.85,19.85,0,0,1,6.2-14.52q6.19-6.19,16.88-6.2a34.44,34.44,0,0,1,10.36,1.47,19.93,19.93,0,0,1,6.48,3l2.36,1.8q2.94,2.74,2.94,4.63c0,1.26-.76,3-2.27,5.2-2.15,3.16-4.35,4.73-6.62,4.73a9.69,9.69,0,0,1-4.92-1.89,9.79,9.79,0,0,1-1.09-.94,13.65,13.65,0,0,0-1.47-1.23A9.46,9.46,0,0,0,948.6,164a8.57,8.57,0,0,0-5.11,1.46,4.76,4.76,0,0,0-2,4.07,4.85,4.85,0,0,0,2.41,4.21,15,15,0,0,0,6,2.18,69,69,0,0,1,7.85,1.75,49.56,49.56,0,0,1,7.85,2.88,13.92,13.92,0,0,1,6,5.91A20.54,20.54,0,0,1,974,196.77a22.94,22.94,0,0,1-2.46,10.83,18.64,18.64,0,0,1-6.43,7.24,29.4,29.4,0,0,1-16.37,5,32,32,0,0,1-8.42-1.08,23,23,0,0,1-6.43-2.7q-5-3-7-5.87Z"/></svg>